<svg width="24" height="25" viewBox="0 0 24 25" fill="none" xmlns="http://www.w3.org/2000/svg">
<path d="M11 12.3252V4.8252C11 4.42737 10.842 4.04584 10.5607 3.76454C10.2794 3.48323 9.89782 3.3252 9.5 3.3252C9.10218 3.3252 8.72064 3.48323 8.43934 3.76454C8.15804 4.04584 8 4.42737 8 4.8252V13.3252L6.53 11.8552C6.23554 11.5611 5.85125 11.3738 5.43816 11.323C5.02507 11.2723 4.60688 11.3611 4.25 11.5752C3.91495 11.7761 3.67148 12.0997 3.57138 12.4773C3.47128 12.855 3.52245 13.2567 3.714 13.5972C5.593 16.9372 6.688 18.8462 7 19.3252L7.196 19.6252C7.74252 20.4551 8.48658 21.1362 9.36138 21.6075C10.2362 22.0787 11.2143 22.3254 12.208 22.3252H12H14C15.5913 22.3252 17.1174 21.6931 18.2426 20.5678C19.3679 19.4426 20 17.9165 20 16.3252V11.8252C20 11.4274 19.842 11.0458 19.5607 10.7645C19.2794 10.4832 18.8978 10.3252 18.5 10.3252C18.1022 10.3252 17.7206 10.4832 17.4393 10.7645C17.158 11.0458 17 11.4274 17 11.8252M11 11.8252V9.8252C11 9.42737 11.158 9.04584 11.4393 8.76453C11.7206 8.48323 12.1022 8.3252 12.5 8.3252C12.8978 8.3252 13.2794 8.48323 13.5607 8.76453C13.842 9.04584 14 9.42737 14 9.8252V12.3252M14 10.8252C14 10.4274 14.158 10.0458 14.4393 9.76453C14.7206 9.48323 15.1022 9.3252 15.5 9.3252C15.8978 9.3252 16.2794 9.48323 16.5607 9.76453C16.842 10.0458 17 10.4274 17 10.8252V12.3252M5 3.3252L4 2.3252M4 7.3252H3M14 3.3252L15 2.3252M15 6.3252H16" stroke="#131612" stroke-width="2" stroke-linecap="round" stroke-linejoin="round"/>
</svg>
