<svg width="24" height="25" viewBox="0 0 24 25" fill="none" xmlns="http://www.w3.org/2000/svg">
<path d="M14 15.3252V17.3252C14 17.5904 13.8946 17.8448 13.7071 18.0323C13.5196 18.2198 13.2652 18.3252 13 18.3252H6L3 21.3252V11.3252C3 11.06 3.10536 10.8056 3.29289 10.6181C3.48043 10.4306 3.73478 10.3252 4 10.3252H6M21 14.3252L18 11.3252H11C10.7348 11.3252 10.4804 11.2198 10.2929 11.0323C10.1054 10.8448 10 10.5904 10 10.3252V4.3252C10 4.05998 10.1054 3.80562 10.2929 3.61809C10.4804 3.43055 10.7348 3.3252 11 3.3252H20C20.2652 3.3252 20.5196 3.43055 20.7071 3.61809C20.8946 3.80562 21 4.05998 21 4.3252V14.3252Z" stroke="#131612" stroke-width="2" stroke-linecap="round" stroke-linejoin="round"/>
</svg>
