<svg width="24" height="25" viewBox="0 0 24 25" fill="none" xmlns="http://www.w3.org/2000/svg">
<path d="M8 9.3252H16M8 13.3252H14M9 18.3252H6C5.20435 18.3252 4.44129 18.0091 3.87868 17.4465C3.31607 16.8839 3 16.1208 3 15.3252V7.3252C3 6.52955 3.31607 5.76648 3.87868 5.20388C4.44129 4.64127 5.20435 4.3252 6 4.3252H18C18.7956 4.3252 19.5587 4.64127 20.1213 5.20388C20.6839 5.76648 21 6.52955 21 7.3252V15.3252C21 16.1208 20.6839 16.8839 20.1213 17.4465C19.5587 18.0091 18.7956 18.3252 18 18.3252H15L12 21.3252L9 18.3252Z" stroke="#131612" stroke-width="2" stroke-linecap="round" stroke-linejoin="round"/>
</svg>
