<svg width="24" height="25" viewBox="0 0 24 25" fill="none" xmlns="http://www.w3.org/2000/svg">
<path d="M8.7 11.0252L15.3 7.62518M8.7 13.6252L15.3 17.0252M3 12.3252C3 13.1208 3.31607 13.8839 3.87868 14.4465C4.44129 15.0091 5.20435 15.3252 6 15.3252C6.79565 15.3252 7.55871 15.0091 8.12132 14.4465C8.68393 13.8839 9 13.1208 9 12.3252C9 11.5295 8.68393 10.7665 8.12132 10.2039C7.55871 9.64127 6.79565 9.3252 6 9.3252C5.20435 9.3252 4.44129 9.64127 3.87868 10.2039C3.31607 10.7665 3 11.5295 3 12.3252ZM15 6.3252C15 7.12084 15.3161 7.88391 15.8787 8.44652C16.4413 9.00913 17.2044 9.3252 18 9.3252C18.7956 9.3252 19.5587 9.00913 20.1213 8.44652C20.6839 7.88391 21 7.12084 21 6.3252C21 5.52955 20.6839 4.76648 20.1213 4.20388C19.5587 3.64127 18.7956 3.3252 18 3.3252C17.2044 3.3252 16.4413 3.64127 15.8787 4.20388C15.3161 4.76648 15 5.52955 15 6.3252ZM15 18.3252C15 19.1208 15.3161 19.8839 15.8787 20.4465C16.4413 21.0091 17.2044 21.3252 18 21.3252C18.7956 21.3252 19.5587 21.0091 20.1213 20.4465C20.6839 19.8839 21 19.1208 21 18.3252C21 17.5295 20.6839 16.7665 20.1213 16.2039C19.5587 15.6413 18.7956 15.3252 18 15.3252C17.2044 15.3252 16.4413 15.6413 15.8787 16.2039C15.3161 16.7665 15 17.5295 15 18.3252Z" stroke="#131612" stroke-width="2" stroke-linecap="round" stroke-linejoin="round"/>
</svg>
