<svg width="24" height="25" viewBox="0 0 24 25" fill="none" xmlns="http://www.w3.org/2000/svg">
<path d="M8 9.3252H7C6.46957 9.3252 5.96086 9.53591 5.58579 9.91098C5.21071 10.2861 5 10.7948 5 11.3252V19.3252C5 19.8556 5.21071 20.3643 5.58579 20.7394C5.96086 21.1145 6.46957 21.3252 7 21.3252H17C17.5304 21.3252 18.0391 21.1145 18.4142 20.7394C18.7893 20.3643 19 19.8556 19 19.3252V11.3252C19 10.7948 18.7893 10.2861 18.4142 9.91098C18.0391 9.53591 17.5304 9.3252 17 9.3252H16M12 14.3252V3.3252M12 3.3252L9 6.3252M12 3.3252L15 6.3252" stroke="#131612" stroke-width="2" stroke-linecap="round" stroke-linejoin="round"/>
</svg>
