<svg width="24" height="25" viewBox="0 0 24 25" fill="none" xmlns="http://www.w3.org/2000/svg">
<path d="M22 17.3252H21C20.7348 17.3252 20.4804 17.2198 20.2929 17.0323C20.1054 16.8448 20 16.5904 20 16.3252V8.3252C20 8.05998 20.1054 7.80563 20.2929 7.61809C20.4804 7.43055 20.7348 7.3252 21 7.3252H22M2 17.3252H3C3.26522 17.3252 3.51957 17.2198 3.70711 17.0323C3.89464 16.8448 4 16.5904 4 16.3252V8.3252C4 8.05998 3.89464 7.80563 3.70711 7.61809C3.51957 7.43055 3.26522 7.3252 3 7.3252H2M7 6.3252C7 6.05998 7.10536 5.80563 7.29289 5.61809C7.48043 5.43055 7.73478 5.3252 8 5.3252H16C16.2652 5.3252 16.5196 5.43055 16.7071 5.61809C16.8946 5.80563 17 6.05998 17 6.3252V18.3252C17 18.5904 16.8946 18.8448 16.7071 19.0323C16.5196 19.2198 16.2652 19.3252 16 19.3252H8C7.73478 19.3252 7.48043 19.2198 7.29289 19.0323C7.10536 18.8448 7 18.5904 7 18.3252V6.3252Z" stroke="#131612" stroke-width="2" stroke-linecap="round" stroke-linejoin="round"/>
</svg>
