<svg width="24" height="24" viewBox="0 0 24 24" fill="none" xmlns="http://www.w3.org/2000/svg">
<path d="M8.48409 4.33391L8.88619 7.57535C8.94243 8.02875 8.78781 8.48291 8.46716 8.80601L7.37646 9.90505C6.9494 10.3354 6.91541 11.0218 7.29786 11.4928L8.3224 12.7546C8.95012 13.5277 9.68853 14.2023 10.5133 14.7564L11.9655 15.7319C12.4445 16.0537 13.0842 15.9786 13.477 15.5545L14.5225 14.4257C14.7285 14.2034 15.033 14.1027 15.3296 14.1587L18.8363 14.8213C19.2534 14.9 19.5555 15.2669 19.5555 15.6945V18.6991C19.5555 19.1738 19.1881 19.5672 18.7172 19.5554C13.3503 19.4213 4.02022 15.8351 3.55626 4.44865C3.53629 3.95839 3.93303 3.55566 4.41997 3.55566H7.60922C8.05388 3.55566 8.42894 3.88931 8.48409 4.33391Z" fill="#838383"/>
</svg>
