<svg width="24" height="24" viewBox="0 0 24 24" fill="none" xmlns="http://www.w3.org/2000/svg">
<path d="M13.3333 5.33344C13.3333 6.31528 12.5374 7.11122 11.5555 7.11122C10.5737 7.11122 9.77777 6.31528 9.77777 5.33344C9.77777 4.3516 10.5737 3.55566 11.5555 3.55566C12.5374 3.55566 13.3333 4.3516 13.3333 5.33344Z" fill="#838383"/>
<path d="M13.3333 11.5557C13.3333 12.5375 12.5374 13.3334 11.5555 13.3334C10.5737 13.3334 9.77777 12.5375 9.77777 11.5557C9.77777 10.5738 10.5737 9.77789 11.5555 9.77789C12.5374 9.77789 13.3333 10.5738 13.3333 11.5557Z" fill="#838383"/>
<path d="M13.3333 17.7779C13.3333 18.7597 12.5374 19.5557 11.5555 19.5557C10.5737 19.5557 9.77777 18.7597 9.77777 17.7779C9.77777 16.796 10.5737 16.0001 11.5555 16.0001C12.5374 16.0001 13.3333 16.796 13.3333 17.7779Z" fill="#838383"/>
</svg>
